<?xml version="1.0" encoding="UTF-8" standalone="no"?>
<svg
   xmlns:dc="http://purl.org/dc/elements/1.1/"
   xmlns:cc="http://creativecommons.org/ns#"
   xmlns:rdf="http://www.w3.org/1999/02/22-rdf-syntax-ns#"
   xmlns:svg="http://www.w3.org/2000/svg"
   xmlns="http://www.w3.org/2000/svg"
   xmlns:sodipodi="http://sodipodi.sourceforge.net/DTD/sodipodi-0.dtd"
   xmlns:inkscape="http://www.inkscape.org/namespaces/inkscape"
   id="svg4306"
   width="22"
   height="22"
   version="1.1"
   style="enable-background:new"
   sodipodi:docname="keepabove.svg"
   inkscape:version="0.92.4 (5da689c313, 2019-01-14)">
  <metadata
     id="metadata24">
    <rdf:RDF>
      <cc:Work
         rdf:about="">
        <dc:format>image/svg+xml</dc:format>
        <dc:type
           rdf:resource="http://purl.org/dc/dcmitype/StillImage" />
        <dc:title />
      </cc:Work>
    </rdf:RDF>
  </metadata>
  <defs
     id="defs22" />
  <sodipodi:namedview
     pagecolor="#ffffff"
     bordercolor="#666666"
     borderopacity="1"
     objecttolerance="10"
     gridtolerance="10"
     guidetolerance="10"
     inkscape:pageopacity="0"
     inkscape:pageshadow="2"
     inkscape:window-width="1366"
     inkscape:window-height="707"
     id="namedview20"
     showgrid="true"
     inkscape:zoom="1.0425808"
     inkscape:cx="-132.51406"
     inkscape:cy="11"
     inkscape:window-x="0"
     inkscape:window-y="0"
     inkscape:window-maximized="1"
     inkscape:current-layer="svg4306"
     showguides="true"
     inkscape:guide-bbox="true">
    <inkscape:grid
       type="xygrid"
       id="grid859" />
    <sodipodi:guide
       position="4,20"
       orientation="1,0"
       id="guide855"
       inkscape:locked="false" />
    <sodipodi:guide
       position="4,18"
       orientation="0,1"
       id="guide857"
       inkscape:locked="false" />
    <sodipodi:guide
       position="18,19"
       orientation="1,0"
       id="guide859"
       inkscape:locked="false" />
    <sodipodi:guide
       position="6.5703276,4"
       orientation="0,1"
       id="guide861"
       inkscape:locked="false" />
  </sodipodi:namedview>
  <g
     id="pressed-center"
     inkscape:label="#g888">
    <path
       inkscape:connector-curvature="0"
       id="path865-3"
       d="M 33,0 A 11,11 0 0 0 22,11 11,11 0 0 0 33,22 11,11 0 0 0 44,11 11,11 0 0 0 33,0 Z m 0,2 a 9,9 0 0 1 9,9 9,9 0 0 1 -9,9 9,9 0 0 1 -9,-9 9,9 0 0 1 9,-9 z"
       style="opacity:0;fill:#77e111;fill-opacity:0;fill-rule:evenodd;stroke:none;stroke-width:0.60000002;stroke-linejoin:miter;stroke-miterlimit:4;stroke-dasharray:none;stroke-opacity:1" />
    <path
       inkscape:connector-curvature="0"
       id="path4-3"
       d="M 27,8.414063 31.585937,13 33,14.414062 34.414062,13 39,8.414063 37.585938,7 33,11.585938 28.414062,7 Z"
       style="fill:#77e111;fill-opacity:1;stroke:none;stroke-width:1.99999988;enable-background:new" />
  </g>
  <g
     transform="translate(-22)"
     style="enable-background:new"
     id="hover-center"
     inkscape:label="#g888">
    <path
       inkscape:connector-curvature="0"
       id="path865-3-6"
       d="M 33,0 A 11,11 0 0 0 22,11 11,11 0 0 0 33,22 11,11 0 0 0 44,11 11,11 0 0 0 33,0 Z m 0,2 a 9,9 0 0 1 9,9 9,9 0 0 1 -9,9 9,9 0 0 1 -9,-9 9,9 0 0 1 9,-9 z"
       style="opacity:0;fill:#77e111;fill-opacity:0;fill-rule:evenodd;stroke:none;stroke-width:0.60000002;stroke-linejoin:miter;stroke-miterlimit:4;stroke-dasharray:none;stroke-opacity:1" />
    <path
       inkscape:connector-curvature="0"
       id="path4-3-7"
       d="M 27,8.414063 31.585937,13 33,14.414062 34.414062,13 39,8.414063 37.585938,7 33,11.585938 28.414062,7 Z"
       style="fill:#77e111;fill-opacity:1;stroke:none;stroke-width:1.99999988;enable-background:new" />
  </g>
  <g
     transform="translate(-44)"
     style="enable-background:new"
     id="active-center"
     inkscape:label="#g888">
    <path
       inkscape:connector-curvature="0"
       id="path865-3-6-3"
       d="M 33,0 A 11,11 0 0 0 22,11 11,11 0 0 0 33,22 11,11 0 0 0 44,11 11,11 0 0 0 33,0 Z m 0,2 a 9,9 0 0 1 9,9 9,9 0 0 1 -9,9 9,9 0 0 1 -9,-9 9,9 0 0 1 9,-9 z"
       style="opacity:0;fill:#77e111;fill-opacity:0;fill-rule:evenodd;stroke:none;stroke-width:0.60000002;stroke-linejoin:miter;stroke-miterlimit:4;stroke-dasharray:none;stroke-opacity:1" />
    <path
       inkscape:connector-curvature="0"
       id="path4-3-7-5"
       d="M 27,8.414063 31.585937,13 33,14.414062 34.414062,13 39,8.414063 37.585938,7 33,11.585938 28.414062,7 Z"
       style="fill:#77e111;fill-opacity:1;stroke:none;stroke-width:1.99999988;enable-background:new" />
  </g>
  <g
     style="fill:#787878;fill-opacity:1;enable-background:new"
     id="deactivated-center"
     inkscape:label="#g888"
     transform="translate(44)">
    <path
       inkscape:connector-curvature="0"
       id="path865-3-6-3-2"
       d="M 33,0 A 11,11 0 0 0 22,11 11,11 0 0 0 33,22 11,11 0 0 0 44,11 11,11 0 0 0 33,0 Z m 0,2 a 9,9 0 0 1 9,9 9,9 0 0 1 -9,9 9,9 0 0 1 -9,-9 9,9 0 0 1 9,-9 z"
       style="opacity:0;fill:#787878;fill-opacity:1;fill-rule:evenodd;stroke:none;stroke-width:0.60000002;stroke-linejoin:miter;stroke-miterlimit:4;stroke-dasharray:none;stroke-opacity:1" />
    <path
       inkscape:connector-curvature="0"
       id="path4-3-7-5-9"
       d="M 27,8.414063 31.585937,13 33,14.414062 34.414062,13 39,8.414063 37.585938,7 33,11.585938 28.414062,7 Z"
       style="fill:#787878;fill-opacity:1;stroke:none;stroke-width:1.99999988;enable-background:new" />
  </g>
  <g
     style="fill:#787878;fill-opacity:1;enable-background:new"
     id="inactive-center"
     inkscape:label="#g888"
     transform="translate(22)">
    <path
       inkscape:connector-curvature="0"
       id="path865-3-6-3-27"
       d="M 33,0 A 11,11 0 0 0 22,11 11,11 0 0 0 33,22 11,11 0 0 0 44,11 11,11 0 0 0 33,0 Z m 0,2 a 9,9 0 0 1 9,9 9,9 0 0 1 -9,9 9,9 0 0 1 -9,-9 9,9 0 0 1 9,-9 z"
       style="opacity:0;fill:#787878;fill-opacity:1;fill-rule:evenodd;stroke:none;stroke-width:0.60000002;stroke-linejoin:miter;stroke-miterlimit:4;stroke-dasharray:none;stroke-opacity:1" />
    <path
       inkscape:connector-curvature="0"
       id="path4-3-7-5-0"
       d="M 27,8.414063 31.585937,13 33,14.414062 34.414062,13 39,8.414063 37.585938,7 33,11.585938 28.414062,7 Z"
       style="fill:#787878;fill-opacity:1;stroke:none;stroke-width:1.99999988;enable-background:new" />
  </g>
</svg>
