<?xml version="1.0" encoding="UTF-8" standalone="no"?>
<svg
   xmlns:dc="http://purl.org/dc/elements/1.1/"
   xmlns:cc="http://creativecommons.org/ns#"
   xmlns:rdf="http://www.w3.org/1999/02/22-rdf-syntax-ns#"
   xmlns:svg="http://www.w3.org/2000/svg"
   xmlns="http://www.w3.org/2000/svg"
   xmlns:sodipodi="http://sodipodi.sourceforge.net/DTD/sodipodi-0.dtd"
   xmlns:inkscape="http://www.inkscape.org/namespaces/inkscape"
   id="svg4306"
   width="22"
   height="22"
   version="1.1"
   style="enable-background:new"
   sodipodi:docname="maximize.svg"
   inkscape:version="0.92.4 (5da689c313, 2019-01-14)">
  <metadata
     id="metadata24">
    <rdf:RDF>
      <cc:Work
         rdf:about="">
        <dc:format>image/svg+xml</dc:format>
        <dc:type
           rdf:resource="http://purl.org/dc/dcmitype/StillImage" />
        <dc:title></dc:title>
      </cc:Work>
    </rdf:RDF>
  </metadata>
  <defs
     id="defs22" />
  <sodipodi:namedview
     pagecolor="#ffffff"
     bordercolor="#666666"
     borderopacity="1"
     objecttolerance="10"
     gridtolerance="10"
     guidetolerance="10"
     inkscape:pageopacity="0"
     inkscape:pageshadow="2"
     inkscape:window-width="1366"
     inkscape:window-height="707"
     id="namedview20"
     showgrid="true"
     inkscape:zoom="2.9488636"
     inkscape:cx="11"
     inkscape:cy="11"
     inkscape:window-x="0"
     inkscape:window-y="0"
     inkscape:window-maximized="1"
     inkscape:current-layer="svg4306"
     showguides="true"
     inkscape:guide-bbox="true">
    <inkscape:grid
       type="xygrid"
       id="grid859" />
    <sodipodi:guide
       position="4,20"
       orientation="1,0"
       id="guide855"
       inkscape:locked="false" />
    <sodipodi:guide
       position="4,18"
       orientation="0,1"
       id="guide857"
       inkscape:locked="false" />
    <sodipodi:guide
       position="18,19"
       orientation="1,0"
       id="guide859"
       inkscape:locked="false" />
    <sodipodi:guide
       position="6.5703276,4"
       orientation="0,1"
       id="guide861"
       inkscape:locked="false" />
  </sodipodi:namedview>
  <g
     id="hover-center"
     inkscape:label="#g845"
     transform="rotate(-180,11,11)">
    <path
       id="path865"
       d="M 11,0 A 11,11 0 0 0 0,11 11,11 0 0 0 11,22 11,11 0 0 0 22,11 11,11 0 0 0 11,0 Z m 0,2 a 9,9 0 0 1 9,9 9,9 0 0 1 -9,9 9,9 0 0 1 -9,-9 9,9 0 0 1 9,-9 z"
       style="opacity:0;fill:#77e111;fill-opacity:0;fill-rule:evenodd;stroke:none;stroke-width:0.60000002;stroke-linejoin:miter;stroke-miterlimit:4;stroke-dasharray:none;stroke-opacity:1"
       inkscape:connector-curvature="0" />
    <path
       style="fill:#77e111;fill-opacity:1;stroke-width:0.89999986"
       d="M 4.009166,2.0411702 A 1.998,1.998 0 0 0 2.0111194,4.0392168 V 18.043123 c 0,1.098 0.9000466,1.998046 1.9980466,1.998046 h 14.003907 a 1.998,1.998 0 0 0 1.998046,-1.998046 v -7.001954 h -1.998046 v 7.001954 H 4.009166 V 4.0392168 h 7.001953 V 2.0411702 Z m 14.581053,0 -9.8290996,9.8349588 V 8.2872647 H 6.7630728 v 7.0019503 h 7.0019502 v -1.998046 h -3.591795 l 9.837891,-9.8290997 z"
       id="path1184"
       inkscape:connector-curvature="0" />
  </g>
  <g
     id="active-center"
     inkscape:label="#g876"
     transform="rotate(-180,0,11)">
    <path
       id="path865-67"
       d="M 11,0 A 11,11 0 0 0 0,11 11,11 0 0 0 11,22 11,11 0 0 0 22,11 11,11 0 0 0 11,0 Z m 0,2 a 9,9 0 0 1 9,9 9,9 0 0 1 -9,9 9,9 0 0 1 -9,-9 9,9 0 0 1 9,-9 z"
       style="opacity:0;fill:#77e111;fill-opacity:0;fill-rule:evenodd;stroke:none;stroke-width:0.60000002;stroke-linejoin:miter;stroke-miterlimit:4;stroke-dasharray:none;stroke-opacity:1"
       inkscape:connector-curvature="0" />
    <path
       id="path872"
       d="M 4.009166,2.0411702 A 1.998,1.998 0 0 0 2.0111194,4.0392168 V 18.043123 c 0,1.098 0.9000466,1.998046 1.9980466,1.998046 h 14.003907 a 1.998,1.998 0 0 0 1.998046,-1.998046 v -7.001954 h -1.998046 v 7.001954 H 4.009166 V 4.0392168 h 7.001953 V 2.0411702 Z"
       style="fill:#77e111;fill-opacity:1;stroke-width:0.89999986"
       inkscape:connector-curvature="0" />
  </g>
  <g
     id="pressed-center"
     inkscape:label="#g882"
     transform="rotate(-180,22,11)">
    <path
       inkscape:connector-curvature="0"
       id="path865-3"
       d="M 11,0 A 11,11 0 0 0 0,11 11,11 0 0 0 11,22 11,11 0 0 0 22,11 11,11 0 0 0 11,0 Z m 0,2 a 9,9 0 0 1 9,9 9,9 0 0 1 -9,9 9,9 0 0 1 -9,-9 9,9 0 0 1 9,-9 z"
       style="opacity:0;fill:#77e111;fill-opacity:0;fill-rule:evenodd;stroke:none;stroke-width:0.60000002;stroke-linejoin:miter;stroke-miterlimit:4;stroke-dasharray:none;stroke-opacity:1" />
    <path
       inkscape:connector-curvature="0"
       id="path1184-5"
       d="M 18.590219,2.04117 8.7611194,11.876129 V 8.287265 H 6.7630728 v 7.00195 h 7.0019502 v -1.998046 h -3.591795 l 9.837891,-9.8291 z"
       style="fill:#77e111;fill-opacity:1;stroke-width:0.89999986" />
  </g>
  <g
     style="fill:#787878;fill-opacity:1;enable-background:new"
     id="inactive-center"
     inkscape:label="#g876"
     transform="rotate(-180,33,11)">
    <path
       id="path865-67-5"
       d="M 11,0 A 11,11 0 0 0 0,11 11,11 0 0 0 11,22 11,11 0 0 0 22,11 11,11 0 0 0 11,0 Z m 0,2 a 9,9 0 0 1 9,9 9,9 0 0 1 -9,9 9,9 0 0 1 -9,-9 9,9 0 0 1 9,-9 z"
       style="opacity:0;fill:#787878;fill-opacity:1;fill-rule:evenodd;stroke:none;stroke-width:0.60000002;stroke-linejoin:miter;stroke-miterlimit:4;stroke-dasharray:none;stroke-opacity:1"
       inkscape:connector-curvature="0" />
    <path
       id="path872-6"
       d="M 4.009166,2.0411702 A 1.998,1.998 0 0 0 2.0111194,4.0392168 V 18.043123 c 0,1.098 0.9000466,1.998046 1.9980466,1.998046 h 14.003907 a 1.998,1.998 0 0 0 1.998046,-1.998046 v -7.001954 h -1.998046 v 7.001954 H 4.009166 V 4.0392168 h 7.001953 V 2.0411702 Z"
       style="fill:#787878;fill-opacity:1;stroke-width:0.89999986"
       inkscape:connector-curvature="0" />
  </g>
  <g
     style="fill:#787878;fill-opacity:1;enable-background:new"
     id="deactivated-center"
     inkscape:label="#g876"
     transform="rotate(-180,44,11)">
    <path
       id="path865-67-9"
       d="M 11,0 A 11,11 0 0 0 0,11 11,11 0 0 0 11,22 11,11 0 0 0 22,11 11,11 0 0 0 11,0 Z m 0,2 a 9,9 0 0 1 9,9 9,9 0 0 1 -9,9 9,9 0 0 1 -9,-9 9,9 0 0 1 9,-9 z"
       style="opacity:0;fill:#787878;fill-opacity:1;fill-rule:evenodd;stroke:none;stroke-width:0.60000002;stroke-linejoin:miter;stroke-miterlimit:4;stroke-dasharray:none;stroke-opacity:1"
       inkscape:connector-curvature="0" />
    <path
       id="path872-1"
       d="M 4.009166,2.0411702 A 1.998,1.998 0 0 0 2.0111194,4.0392168 V 18.043123 c 0,1.098 0.9000466,1.998046 1.9980466,1.998046 h 14.003907 a 1.998,1.998 0 0 0 1.998046,-1.998046 v -7.001954 h -1.998046 v 7.001954 H 4.009166 V 4.0392168 h 7.001953 V 2.0411702 Z"
       style="fill:#787878;fill-opacity:1;stroke-width:0.89999986"
       inkscape:connector-curvature="0" />
  </g>
</svg>
