<?xml version="1.0" encoding="UTF-8" standalone="no"?>
<svg
   xmlns:dc="http://purl.org/dc/elements/1.1/"
   xmlns:cc="http://creativecommons.org/ns#"
   xmlns:rdf="http://www.w3.org/1999/02/22-rdf-syntax-ns#"
   xmlns:svg="http://www.w3.org/2000/svg"
   xmlns="http://www.w3.org/2000/svg"
   xmlns:sodipodi="http://sodipodi.sourceforge.net/DTD/sodipodi-0.dtd"
   xmlns:inkscape="http://www.inkscape.org/namespaces/inkscape"
   id="svg4306"
   width="22"
   height="22"
   version="1.1"
   style="enable-background:new"
   sodipodi:docname="shade.svg"
   inkscape:version="0.92.4 (5da689c313, 2019-01-14)">
  <metadata
     id="metadata24">
    <rdf:RDF>
      <cc:Work
         rdf:about="">
        <dc:format>image/svg+xml</dc:format>
        <dc:type
           rdf:resource="http://purl.org/dc/dcmitype/StillImage" />
        <dc:title></dc:title>
      </cc:Work>
    </rdf:RDF>
  </metadata>
  <defs
     id="defs22" />
  <sodipodi:namedview
     pagecolor="#ffffff"
     bordercolor="#666666"
     borderopacity="1"
     objecttolerance="10"
     gridtolerance="10"
     guidetolerance="10"
     inkscape:pageopacity="0"
     inkscape:pageshadow="2"
     inkscape:window-width="1366"
     inkscape:window-height="707"
     id="namedview20"
     showgrid="true"
     inkscape:zoom="4.170323"
     inkscape:cx="11"
     inkscape:cy="11"
     inkscape:window-x="0"
     inkscape:window-y="0"
     inkscape:window-maximized="1"
     inkscape:current-layer="svg4306"
     showguides="true"
     inkscape:guide-bbox="true">
    <inkscape:grid
       type="xygrid"
       id="grid859" />
    <sodipodi:guide
       position="4,20"
       orientation="1,0"
       id="guide855"
       inkscape:locked="false" />
    <sodipodi:guide
       position="4,18"
       orientation="0,1"
       id="guide857"
       inkscape:locked="false" />
    <sodipodi:guide
       position="18,19"
       orientation="1,0"
       id="guide859"
       inkscape:locked="false" />
    <sodipodi:guide
       position="6.5703276,4"
       orientation="0,1"
       id="guide861"
       inkscape:locked="false" />
  </sodipodi:namedview>
  <g
     id="hover-center"
     inkscape:label="#g1016">
    <path
       id="path865"
       d="M 11,0 A 11,11 0 0 0 0,11 11,11 0 0 0 11,22 11,11 0 0 0 22,11 11,11 0 0 0 11,0 Z m 0,2 a 9,9 0 0 1 9,9 9,9 0 0 1 -9,9 9,9 0 0 1 -9,-9 9,9 0 0 1 9,-9 z"
       style="opacity:0;fill:#fdff00;fill-opacity:0;fill-rule:evenodd;stroke:none;stroke-width:0.60000002;stroke-linejoin:miter;stroke-miterlimit:4;stroke-dasharray:none;stroke-opacity:1"
       inkscape:connector-curvature="0" />
    <path
       id="path1011"
       d="M 4 3 C 3.4546499 3 3 3.45465 3 4 L 3 18 C 3 18.54535 3.4546499 19 4 19 L 18 19 C 18.54535 19 19 18.54535 19 18 L 19 4 C 19 3.45465 18.54535 3 18 3 L 4 3 z M 5.1699219 7.0019531 L 16.830078 7.0019531 L 16.830078 16.998047 L 5.1699219 16.998047 L 5.1699219 7.0019531 z "
       style="color:#ffffff;fill:#fdff00;fill-opacity:1;stroke-width:1;enable-background:new" />
  </g>
  <g
     id="pressed-center"
     transform="translate(22)"
     inkscape:label="#g1005">
    <path
       inkscape:connector-curvature="0"
       id="path865-3"
       d="M 11,0 A 11,11 0 0 0 0,11 11,11 0 0 0 11,22 11,11 0 0 0 22,11 11,11 0 0 0 11,0 Z m 0,2 a 9,9 0 0 1 9,9 9,9 0 0 1 -9,9 9,9 0 0 1 -9,-9 9,9 0 0 1 9,-9 z"
       style="opacity:0;fill:#fdff00;fill-opacity:0;fill-rule:evenodd;stroke:none;stroke-width:0.60000002;stroke-linejoin:miter;stroke-miterlimit:4;stroke-dasharray:none;stroke-opacity:1" />
    <path
       sodipodi:nodetypes="ccccc"
       id="path6"
       class="ColorScheme-Text"
       d="m 2.5,10 v 2.024419 c 0,0 17,0.0042 17,0 V 10 Z"
       style="color:#232629;fill:#fdff00;fill-opacity:1;stroke:none;stroke-width:1.77052784;enable-background:new"
       inkscape:connector-curvature="0" />
  </g>
  <g
     style="fill:#787878;fill-opacity:1;enable-background:new"
     id="inactive-center"
     inkscape:label="#g1016"
     transform="translate(44)">
    <path
       id="path865-9"
       d="M 11,0 A 11,11 0 0 0 0,11 11,11 0 0 0 11,22 11,11 0 0 0 22,11 11,11 0 0 0 11,0 Z m 0,2 a 9,9 0 0 1 9,9 9,9 0 0 1 -9,9 9,9 0 0 1 -9,-9 9,9 0 0 1 9,-9 z"
       style="opacity:0;fill:#787878;fill-opacity:1;fill-rule:evenodd;stroke:none;stroke-width:0.60000002;stroke-linejoin:miter;stroke-miterlimit:4;stroke-dasharray:none;stroke-opacity:1"
       inkscape:connector-curvature="0" />
    <path
       inkscape:connector-curvature="0"
       id="path1011-3"
       d="M 4,3 C 3.4546499,3 3,3.45465 3,4 v 14 c 0,0.54535 0.4546499,1 1,1 h 14 c 0.54535,0 1,-0.45465 1,-1 V 4 C 19,3.45465 18.54535,3 18,3 Z M 5.1699219,7.0019531 H 16.830078 V 16.998047 H 5.1699219 Z"
       style="color:#ffffff;fill:#787878;fill-opacity:1;stroke-width:1;enable-background:new" />
  </g>
  <g
     style="enable-background:new"
     id="active-center"
     inkscape:label="#g1016"
     transform="translate(-22)">
    <path
       id="path865-9-0"
       d="M 11,0 A 11,11 0 0 0 0,11 11,11 0 0 0 11,22 11,11 0 0 0 22,11 11,11 0 0 0 11,0 Z m 0,2 a 9,9 0 0 1 9,9 9,9 0 0 1 -9,9 9,9 0 0 1 -9,-9 9,9 0 0 1 9,-9 z"
       style="opacity:0;fill:#fdff00;fill-opacity:0;fill-rule:evenodd;stroke:none;stroke-width:0.60000002;stroke-linejoin:miter;stroke-miterlimit:4;stroke-dasharray:none;stroke-opacity:1"
       inkscape:connector-curvature="0" />
    <path
       inkscape:connector-curvature="0"
       id="path1011-3-6"
       d="M 4,3 C 3.4546499,3 3,3.45465 3,4 v 14 c 0,0.54535 0.4546499,1 1,1 h 14 c 0.54535,0 1,-0.45465 1,-1 V 4 C 19,3.45465 18.54535,3 18,3 Z M 5.1699219,7.0019531 H 16.830078 V 16.998047 H 5.1699219 Z"
       style="color:#ffffff;fill:#fdff00;fill-opacity:1;stroke-width:1;enable-background:new" />
  </g>
  <g
     style="fill:#787878;fill-opacity:1;enable-background:new"
     id="deactivated-center"
     inkscape:label="#g1016"
     transform="translate(66)">
    <path
       id="path865-9-6"
       d="M 11,0 A 11,11 0 0 0 0,11 11,11 0 0 0 11,22 11,11 0 0 0 22,11 11,11 0 0 0 11,0 Z m 0,2 a 9,9 0 0 1 9,9 9,9 0 0 1 -9,9 9,9 0 0 1 -9,-9 9,9 0 0 1 9,-9 z"
       style="opacity:0;fill:#787878;fill-opacity:1;fill-rule:evenodd;stroke:none;stroke-width:0.60000002;stroke-linejoin:miter;stroke-miterlimit:4;stroke-dasharray:none;stroke-opacity:1"
       inkscape:connector-curvature="0" />
    <path
       inkscape:connector-curvature="0"
       id="path1011-3-1"
       d="M 4,3 C 3.4546499,3 3,3.45465 3,4 v 14 c 0,0.54535 0.4546499,1 1,1 h 14 c 0.54535,0 1,-0.45465 1,-1 V 4 C 19,3.45465 18.54535,3 18,3 Z M 5.1699219,7.0019531 H 16.830078 V 16.998047 H 5.1699219 Z"
       style="color:#ffffff;fill:#787878;fill-opacity:1;stroke-width:1;enable-background:new" />
  </g>
</svg>
