<?xml version="1.0" encoding="UTF-8" standalone="no"?>
<!-- Created with Inkscape (http://www.inkscape.org/) -->

<svg
   xmlns:dc="http://purl.org/dc/elements/1.1/"
   xmlns:cc="http://creativecommons.org/ns#"
   xmlns:rdf="http://www.w3.org/1999/02/22-rdf-syntax-ns#"
   xmlns:svg="http://www.w3.org/2000/svg"
   xmlns="http://www.w3.org/2000/svg"
   xmlns:sodipodi="http://sodipodi.sourceforge.net/DTD/sodipodi-0.dtd"
   xmlns:inkscape="http://www.inkscape.org/namespaces/inkscape"
   width="136"
   height="136"
   viewBox="0 0 35.983333 35.983334"
   id="svg2"
   version="1.1"
   inkscape:version="0.92.4 (5da689c313, 2019-01-14)"
   sodipodi:docname="action-overlays.svg">
  <defs
     id="defs4">
    <style
       type="text/css"
       id="current-color-scheme">
      .ColorScheme-Text {
        color:#31363b;
        stop-color:#31363b;
      }
      .ColorScheme-Background {
        color:#eff0f1;
        stop-color:#eff0f1;
      }
      .ColorScheme-Highlight {
        color:#3daee9;
        stop-color:#3daee9;
      }
      .ColorScheme-ViewText {
        color:#31363b;
        stop-color:#31363b;
      }
      .ColorScheme-ViewBackground {
        color:#fcfcfc;
        stop-color:#fcfcfc;
      }
      .ColorScheme-ViewHover {
        color:#93cee9;
        stop-color:#93cee9;
      }
      .ColorScheme-ViewFocus{
        color:#3daee9;
        stop-color:#3daee9;
      }
      .ColorScheme-ButtonText {
        color:#31363b;
        stop-color:#31363b;
      }
      .ColorScheme-ButtonBackground {
        color:#eff0f1;
        stop-color:#eff0f1;
      }
      .ColorScheme-ButtonHover {
        color:#93cee9;
        stop-color:#93cee9;
      }
      .ColorScheme-ButtonFocus{
        color:#3daee9;
        stop-color:#3daee9;
      }
      .ColorScheme-PositiveText {
        color:#27ae60;
        stop-color:#27ae60;
      }
      .ColorScheme-NegativeText {
        color:#da4453;
        stop-color:#da4453;
      }
      </style>
  </defs>
  <sodipodi:namedview
     id="base"
     pagecolor="#ffffff"
     bordercolor="#c90303"
     borderopacity="1"
     inkscape:pageopacity="0"
     inkscape:pageshadow="2"
     inkscape:zoom="4.3777778"
     inkscape:cx="-54.727633"
     inkscape:cy="77.984101"
     inkscape:document-units="px"
     inkscape:current-layer="layer1"
     showgrid="true"
     units="px"
     inkscape:showpageshadow="false"
     borderlayer="true"
     inkscape:window-width="1366"
     inkscape:window-height="703"
     inkscape:window-x="0"
     inkscape:window-y="0"
     inkscape:window-maximized="1"
     fit-margin-top="0"
     fit-margin-left="0"
     fit-margin-right="0"
     fit-margin-bottom="0">
    <inkscape:grid
       type="xygrid"
       id="grid4160"
       empspacing="2"
       originx="0.52916663"
       originy="-11.641662" />
    <sodipodi:guide
       position="7.1437512,31.48542"
       orientation="21.999992,0"
       id="guide4185"
       inkscape:locked="false" />
    <sodipodi:guide
       position="7.1437512,25.664589"
       orientation="0,21.999999"
       id="guide4187"
       inkscape:locked="false" />
    <sodipodi:guide
       position="12.964584,25.664589"
       orientation="-21.999992,0"
       id="guide4189"
       inkscape:locked="false" />
    <sodipodi:guide
       position="12.964584,31.48542"
       orientation="0,-21.999999"
       id="guide4191"
       inkscape:locked="false" />
    <sodipodi:guide
       position="7.9375005,30.691658"
       orientation="16.000015,0"
       id="guide4195"
       inkscape:locked="false" />
    <sodipodi:guide
       position="7.9375005,26.45832"
       orientation="0,15.999999"
       id="guide4197"
       inkscape:locked="false" />
    <sodipodi:guide
       position="12.170833,26.45832"
       orientation="-16.000015,0"
       id="guide4199"
       inkscape:locked="false" />
    <sodipodi:guide
       position="12.170833,30.691658"
       orientation="0,-15.999999"
       id="guide4201"
       inkscape:locked="false" />
    <sodipodi:guide
       position="7.9374991,24.870826"
       orientation="16.000015,0"
       id="guide4258"
       inkscape:locked="false" />
    <sodipodi:guide
       position="7.9374991,20.637489"
       orientation="0,16.000004"
       id="guide4260"
       inkscape:locked="false" />
    <sodipodi:guide
       position="12.170833,20.637489"
       orientation="-16.000015,0"
       id="guide4262"
       inkscape:locked="false" />
    <sodipodi:guide
       position="12.170833,24.870826"
       orientation="0,-16.000004"
       id="guide4264"
       inkscape:locked="false" />
  </sodipodi:namedview>
  <metadata
     id="metadata7">
    <rdf:RDF>
      <cc:Work
         rdf:about="">
        <dc:format>image/svg+xml</dc:format>
        <dc:type
           rdf:resource="http://purl.org/dc/dcmitype/StillImage" />
        <dc:title></dc:title>
      </cc:Work>
    </rdf:RDF>
  </metadata>
  <g
     inkscape:label="Capa 1"
     inkscape:groupmode="layer"
     id="layer1"
     transform="translate(0.52916664,-249.37498)">
    <g
       id="add-normal"
       inkscape:label="#g891">
      <rect
         y="253.87289"
         x="6.6145849"
         height="5.8208332"
         width="5.8208318"
         id="rect4208"
         style="opacity:0;fill:#a1a1a1;fill-opacity:0;stroke:none" />
      <path
         inkscape:connector-curvature="0"
         style="color:#31363b;opacity:1;fill:#444444;fill-opacity:1;stroke:none;stroke-width:1.99999857"
         class="ColorScheme-Text"
         d="m 9.5250005,254.66664 c -1.1726334,0 -2.1166669,0.94404 -2.1166669,2.11665 0,1.17264 0.9440335,2.11668 2.1166669,2.11668 1.1726345,0 2.1166665,-0.94404 2.1166665,-2.11668 0,-1.17261 -0.944032,-2.11665 -2.1166665,-2.11665 z"
         id="path6" />
      <path
         inkscape:connector-curvature="0"
         style="color:#eff0f1;fill:#ffffff;fill-opacity:1;stroke:none;stroke-width:1.99999857"
         class="ColorScheme-Background"
         d="m 9.2604173,255.1958 v 1.32291 h -1.322917 v 0.52918 h 1.322917 v 1.3229 h 0.5291673 v -1.3229 h 1.3229164 v -0.52918 H 9.7895846 v -1.32291 z"
         id="path8" />
    </g>
    <g
       id="open-normal"
       inkscape:label="#g902">
      <rect
         style="opacity:0;fill:none;fill-opacity:1;stroke:none"
         id="rect4312-0"
         width="5.8208318"
         height="5.8208332"
         x="6.6145835"
         y="259.69373" />
      <path
         inkscape:connector-curvature="0"
         style="color:#31363b;opacity:1;fill:#444444;fill-opacity:1;stroke:none;stroke-width:1.99999845"
         class="ColorScheme-Text"
         d="m 9.5250021,260.48749 c -1.1726349,0 -2.1166681,0.94404 -2.1166681,2.11665 0,1.17264 0.9440332,2.11668 2.1166681,2.11668 1.1726339,0 2.1166659,-0.94404 2.1166659,-2.11668 0,-1.17261 -0.944032,-2.11665 -2.1166659,-2.11665 z"
         id="path6-7-6" />
      <path
         inkscape:connector-curvature="0"
         style="color:#eff0f1;fill:#ffffff;fill-opacity:1;stroke:none;stroke-width:1.99999845"
         class="ColorScheme-Background"
         id="path6-3"
         d="m 9.260398,264.19164 v -2.16562 l -1.2071606,1.20678 -0.38032,-0.36468 1.7363247,-1.75231 0.11576,-0.0992 0.11576,0.0992 1.7363219,1.75231 -0.380318,0.36468 -1.2071579,-1.20678 v 2.16562 z" />
    </g>
    <g
       id="remove-normal"
       inkscape:label="#g940"
       transform="translate(-9.5852938e-7,0.5217687)">
      <rect
         style="opacity:0;fill:none;fill-opacity:1;stroke:none"
         id="rect4312-0-6"
         width="5.8208318"
         height="5.8208332"
         x="6.6145835"
         y="264.99277" />
      <path
         inkscape:connector-curvature="0"
         style="color:#31363b;opacity:1;fill:#444444;fill-opacity:1;stroke:none;stroke-width:1.99999845"
         class="ColorScheme-Text"
         d="m 9.525002,265.78654 c -1.1726349,0 -2.1166681,0.94404 -2.1166681,2.11665 0,1.17264 0.9440332,2.11668 2.1166681,2.11668 1.172634,0 2.116666,-0.94404 2.116666,-2.11668 0,-1.17261 -0.944032,-2.11665 -2.116666,-2.11665 z"
         id="path6-7-6-7" />
      <path
         inkscape:connector-curvature="0"
         style="color:#eff0f1;fill:#ffffff;fill-opacity:1;stroke:none;stroke-width:1.99999845"
         class="ColorScheme-Background"
         d="m 7.9375008,267.63861 v 0.52918 h 3.1750002 v -0.52918 z"
         id="path8-5" />
    </g>
    <g
       id="add-hover"
       inkscape:label="#g1002"
       transform="translate(16.404167)">
      <rect
         y="253.89572"
         x="-3.968749"
         height="5.8208332"
         width="5.8208318"
         id="rect4208-5"
         style="opacity:0;fill:#a1a1a1;fill-opacity:0;stroke:none" />
      <path
         inkscape:connector-curvature="0"
         style="color:#31363b;opacity:0.4;fill:#ff0400;fill-opacity:1;stroke:none;stroke-width:1.99999857"
         class="ColorScheme-Text"
         d="m -1.0583335,254.68947 c -1.1726334,0 -2.1166669,0.94404 -2.1166669,2.11665 0,1.17264 0.9440335,2.11668 2.1166669,2.11668 1.1726345,0 2.1166665,-0.94404 2.1166665,-2.11668 0,-1.17261 -0.944032,-2.11665 -2.1166665,-2.11665 z"
         id="path6-6" />
      <path
         inkscape:connector-curvature="0"
         style="color:#eff0f1;fill:#ffffff;fill-opacity:1;stroke:none;stroke-width:1.99999857"
         class="ColorScheme-Background"
         d="m -1.3229167,255.21863 v 1.32291 h -1.322917 v 0.52918 h 1.322917 v 1.3229 h 0.5291673 v -1.3229 H 0.529167 v -0.52918 h -1.3229164 v -1.32291 z"
         id="path8-2" />
    </g>
    <g
       id="open-hover"
       inkscape:label="#g1007"
       transform="translate(16.404167)">
      <rect
         style="opacity:0;fill:none;fill-opacity:1;stroke:none"
         id="rect4312-0-1"
         width="5.8208318"
         height="5.8208332"
         x="-3.9687505"
         y="259.71655" />
      <path
         inkscape:connector-curvature="0"
         style="color:#31363b;opacity:0.4;fill:#ff0400;fill-opacity:1;stroke:none;stroke-width:1.99999845"
         class="ColorScheme-Text"
         d="m -1.0583319,260.51032 c -1.1726349,0 -2.1166681,0.94404 -2.1166681,2.11665 0,1.17264 0.9440332,2.11668 2.1166681,2.11668 1.1726339,0 2.1166659,-0.94404 2.1166659,-2.11668 0,-1.17261 -0.944032,-2.11665 -2.1166659,-2.11665 z"
         id="path6-7-6-2" />
      <path
         inkscape:connector-curvature="0"
         style="color:#eff0f1;fill:#ffffff;fill-opacity:1;stroke:none;stroke-width:1.99999845"
         class="ColorScheme-Background"
         id="path6-3-70"
         d="m -1.322936,264.21447 v -2.16562 l -1.2071606,1.20678 -0.38032,-0.36468 1.7363247,-1.75231 0.11576,-0.0992 0.11576,0.0992 1.7363219,1.75231 -0.380318,0.36468 -1.2071579,-1.20678 v 2.16562 z" />
    </g>
    <g
       id="remove-hover"
       inkscape:label="#g1012"
       transform="translate(16.404167)">
      <rect
         style="opacity:0;fill:none;fill-opacity:1;stroke:none"
         id="rect4312-0-6-3"
         width="5.8208318"
         height="5.8208332"
         x="-3.9687505"
         y="265.53738" />
      <path
         inkscape:connector-curvature="0"
         style="color:#31363b;opacity:0.4;fill:#ff0400;fill-opacity:1;stroke:none;stroke-width:1.99999845"
         class="ColorScheme-Text"
         d="m -1.058332,266.33114 c -1.1726349,0 -2.1166681,0.94404 -2.1166681,2.11665 0,1.17264 0.9440332,2.11668 2.1166681,2.11668 1.172634,0 2.116666,-0.94404 2.116666,-2.11668 0,-1.17261 -0.944032,-2.11665 -2.116666,-2.11665 z"
         id="path6-7-6-7-6" />
      <path
         inkscape:connector-curvature="0"
         style="color:#eff0f1;fill:#ffffff;fill-opacity:1;stroke:none;stroke-width:1.99999845"
         class="ColorScheme-Background"
         d="m -2.6458332,268.18321 v 0.52918 H 0.529167 v -0.52918 z"
         id="path8-5-0" />
    </g>
    <g
       id="add-pressed"
       inkscape:label="#g1074"
       transform="translate(22.225001)">
      <rect
         y="253.89572"
         x="-3.9915805"
         height="5.8208332"
         width="5.8208318"
         id="rect4208-5-2"
         style="opacity:0;fill:#a1a1a1;fill-opacity:0;stroke:none" />
      <path
         inkscape:connector-curvature="0"
         style="color:#31363b;opacity:0.8;fill:#ff0400;fill-opacity:1;stroke:none;stroke-width:1.99999857"
         class="ColorScheme-Text"
         d="m -1.0811649,254.68947 c -1.1726334,0 -2.1166669,0.94404 -2.1166669,2.11665 0,1.17264 0.9440335,2.11668 2.1166669,2.11668 1.17263451,0 2.1166665,-0.94404 2.1166665,-2.11668 0,-1.17261 -0.94403199,-2.11665 -2.1166665,-2.11665 z"
         id="path6-6-6" />
      <path
         inkscape:connector-curvature="0"
         style="color:#eff0f1;fill:#ffffff;fill-opacity:1;stroke:none;stroke-width:1.99999857"
         class="ColorScheme-Background"
         d="m -1.3457481,255.21863 v 1.32291 h -1.322917 v 0.52918 h 1.322917 v 1.3229 h 0.52916731 v -1.3229 h 1.3229164 v -0.52918 h -1.3229164 v -1.32291 z"
         id="path8-2-1" />
    </g>
    <g
       id="open-pressed"
       inkscape:label="#g1079"
       transform="translate(22.225001)">
      <rect
         style="opacity:0;fill:none;fill-opacity:1;stroke:none"
         id="rect4312-0-1-7"
         width="5.8208318"
         height="5.8208332"
         x="-3.9915819"
         y="259.71655" />
      <path
         inkscape:connector-curvature="0"
         style="color:#31363b;opacity:0.8;fill:#ff0400;fill-opacity:1;stroke:none;stroke-width:1.99999845"
         class="ColorScheme-Text"
         d="m -1.0811633,260.51032 c -1.1726349,0 -2.1166681,0.94404 -2.1166681,2.11665 0,1.17264 0.9440332,2.11668 2.1166681,2.11668 1.17263391,0 2.1166659,-0.94404 2.1166659,-2.11668 0,-1.17261 -0.94403199,-2.11665 -2.1166659,-2.11665 z"
         id="path6-7-6-2-9" />
      <path
         inkscape:connector-curvature="0"
         style="color:#eff0f1;fill:#ffffff;fill-opacity:1;stroke:none;stroke-width:1.99999845"
         class="ColorScheme-Background"
         id="path6-3-70-2"
         d="m -1.3457674,264.21447 v -2.16562 l -1.2071606,1.20678 -0.38032,-0.36468 1.7363247,-1.75231 0.11576,-0.0992 0.11576001,0.0992 1.7363219,1.75231 -0.380318,0.36468 -1.2071579,-1.20678 v 2.16562 z" />
    </g>
    <g
       id="remove-pressed"
       inkscape:label="#g1084"
       transform="translate(22.225001)">
      <rect
         style="opacity:0;fill:none;fill-opacity:1;stroke:none"
         id="rect4312-0-6-3-2"
         width="5.8208318"
         height="5.8208332"
         x="-3.9915819"
         y="265.53738" />
      <path
         inkscape:connector-curvature="0"
         style="color:#31363b;opacity:0.8;fill:#ff0400;fill-opacity:1;stroke:none;stroke-width:1.99999845"
         class="ColorScheme-Text"
         d="m -1.0811634,266.33114 c -1.1726349,0 -2.1166681,0.94404 -2.1166681,2.11665 0,1.17264 0.9440332,2.11668 2.1166681,2.11668 1.17263401,0 2.116666,-0.94404 2.116666,-2.11668 0,-1.17261 -0.94403199,-2.11665 -2.116666,-2.11665 z"
         id="path6-7-6-7-6-3" />
      <path
         inkscape:connector-curvature="0"
         style="color:#eff0f1;fill:#ffffff;fill-opacity:1;stroke:none;stroke-width:1.99999845"
         class="ColorScheme-Background"
         d="m -2.6686646,268.18321 v 0.52918 h 3.17500021 v -0.52918 z"
         id="path8-5-0-7" />
    </g>
  </g>
</svg>
