<?xml version="1.0" encoding="UTF-8" standalone="no"?>
<!-- Created with Inkscape (http://www.inkscape.org/) -->

<svg
   xmlns:dc="http://purl.org/dc/elements/1.1/"
   xmlns:cc="http://creativecommons.org/ns#"
   xmlns:rdf="http://www.w3.org/1999/02/22-rdf-syntax-ns#"
   xmlns:svg="http://www.w3.org/2000/svg"
   xmlns="http://www.w3.org/2000/svg"
   xmlns:sodipodi="http://sodipodi.sourceforge.net/DTD/sodipodi-0.dtd"
   xmlns:inkscape="http://www.inkscape.org/namespaces/inkscape"
   width="128"
   height="128"
   id="svg2"
   sodipodi:version="0.32"
   inkscape:version="0.92.4 (5da689c313, 2019-01-14)"
   version="1.0"
   sodipodi:docname="slider.svg"
   inkscape:output_extension="org.inkscape.output.svgz.inkscape"
   inkscape:export-filename="arrow-up.png"
   inkscape:export-xdpi="11.25"
   inkscape:export-ydpi="11.25">
  <sodipodi:namedview
     id="base"
     pagecolor="#eff0f1"
     bordercolor="#666666"
     borderopacity="1.0"
     gridtolerance="10000"
     guidetolerance="10"
     objecttolerance="10"
     inkscape:pageopacity="1"
     inkscape:pageshadow="2"
     inkscape:zoom="5.8409967"
     inkscape:cx="9.8266062"
     inkscape:cy="14.546408"
     inkscape:document-units="px"
     inkscape:current-layer="layer1"
     width="128px"
     height="128px"
     showgrid="true"
     inkscape:window-width="1366"
     inkscape:window-height="703"
     inkscape:window-x="0"
     inkscape:window-y="0"
     inkscape:snap-nodes="true"
     inkscape:snap-global="true"
     inkscape:window-maximized="1"
     inkscape:snap-page="true">
    <inkscape:grid
       id="GridFromPre046Settings"
       type="xygrid"
       originx="0"
       originy="0"
       spacingx="1"
       spacingy="1"
       color="#0000ff"
       empcolor="#0000ff"
       opacity="0.01960784"
       empopacity="0.03921569"
       empspacing="2"
       visible="true"
       enabled="true"
       snapvisiblegridlinesonly="true" />
  </sodipodi:namedview>
  <defs
     id="defs4">
    <style
       id="current-color-scheme"
       type="text/css">
      .ColorScheme-Text {
        color:#31363b;
        stop-color:#31363b;
      }
      .ColorScheme-Background {
        color:#eff0f1;
        stop-color:#eff0f1;
      }
      .ColorScheme-Highlight {
        color:#3daee9;
        stop-color:#3daee9;
      }
      .ColorScheme-ViewText {
        color:#31363b;
        stop-color:#31363b;
      }
      .ColorScheme-ViewBackground {
        color:#fcfcfc;
        stop-color:#fcfcfc;
      }
      .ColorScheme-ViewHover {
        color:#93cee9;
        stop-color:#93cee9;
      }
      .ColorScheme-ViewFocus{
        color:#3daee9;
        stop-color:#3daee9;
      }
      .ColorScheme-ButtonText {
        color:#31363b;
        stop-color:#31363b;
      }
      .ColorScheme-ButtonBackground {
        color:#eff0f1;
        stop-color:#eff0f1;
      }
      .ColorScheme-ButtonHover {
        color:#93cee9;
        stop-color:#93cee9;
      }
      .ColorScheme-ButtonFocus{
        color:#3daee9;
        stop-color:#3daee9;
      }
      </style>
  </defs>
  <metadata
     id="metadata7">
    <rdf:RDF>
      <cc:Work
         rdf:about="">
        <dc:format>image/svg+xml</dc:format>
        <dc:type
           rdf:resource="http://purl.org/dc/dcmitype/StillImage" />
        <dc:title></dc:title>
      </cc:Work>
    </rdf:RDF>
  </metadata>
  <g
     inkscape:label="Layer 1"
     inkscape:groupmode="layer"
     id="layer1">
    <path
       class="ColorScheme-Text"
       inkscape:connector-curvature="0"
       style="opacity:0.3;fill:currentColor"
       d="m 10,7 0,3 3,0 0,-3 -3,0 z"
       id="groove-top" />
    <rect
       ry="2.077126"
       rx="0"
       y="4.6594176"
       x="2.2599621"
       height="2.077126"
       width="2.0329318"
       id="hint-tile-center"
       style="fill:#4e9a06;fill-opacity:1;fill-rule:nonzero;stroke:none" />
    <path
       class="ColorScheme-Text"
       id="groove-bottom"
       d="m 10,18 0,-3 3,0 0,3 -3,0 z"
       style="opacity:0.3;fill:currentColor"
       inkscape:connector-curvature="0" />
    <path
       class="ColorScheme-Text"
       id="groove-center"
       d="m 10,11 0,3 3,0 0,-3 -3,0 z"
       style="opacity:0.3;fill:currentColor"
       inkscape:connector-curvature="0" />
    <path
       class="ColorScheme-Text"
       inkscape:connector-curvature="0"
       style="opacity:0.3;fill:currentColor"
       d="m 6,11 0,3 3,0 0,-3 -3,0 z"
       id="groove-left" />
    <path
       class="ColorScheme-Text"
       inkscape:connector-curvature="0"
       style="opacity:0.3;fill:currentColor"
       d="m 14,11 0,3 3,0 0,-3 -3,0 z"
       id="groove-right" />
    <path
       id="groove-highlight-top"
       d="m 28,7 0,3 3,0 0,-3 -3,0 z"
       style="fill:#00dfff;fill-opacity:1"
       inkscape:connector-curvature="0"
       class="ColorScheme-ButtonHover" />
    <path
       inkscape:connector-curvature="0"
       style="fill:#00dfff;fill-opacity:1"
       d="m 28,18 0,-3 3,0 0,3 -3,0 z"
       id="groove-highlight-bottom"
       class="ColorScheme-ButtonHover" />
    <path
       inkscape:connector-curvature="0"
       style="fill:#00dfff;fill-opacity:1"
       d="m 28,11 0,3 3,0 0,-3 -3,0 z"
       id="groove-highlight-center"
       class="ColorScheme-ButtonHover" />
    <path
       id="groove-highlight-left"
       d="m 24,11 0,3 3,0 0,-3 -3,0 z"
       style="fill:#00dfff;fill-opacity:1"
       inkscape:connector-curvature="0"
       class="ColorScheme-ButtonHover" />
    <path
       id="groove-highlight-right"
       d="m 32,11 0,3 3,0 0,-3 -3,0 z"
       style="fill:#00dfff;fill-opacity:1"
       inkscape:connector-curvature="0"
       class="ColorScheme-ButtonHover" />
    <g
       id="vertical-slider-handle"
       inkscape:label="">
      <rect
         style="opacity:0.00100002;fill:#00dfff;fill-opacity:1;stroke:none"
         id="rect3900"
         width="24"
         height="24"
         x="38"
         y="62" />
      <path
         id="path997"
         d="m 50,64.000001 c -5.522847,0 -10,4.477149 -10,9.999999 0,5.52285 4.477153,10 10,10 5.522847,0 10,-4.47715 10,-10 0,-5.52285 -4.477153,-9.999999 -10,-9.999999 z"
         style="color:#93cee9;fill:#00dfff;fill-opacity:1" />
      <path
         id="path3902"
         d="m 50,65.000001 c 4.970563,0 9,4.029439 9,8.999999 0,4.97056 -4.029437,9 -9,9 -4.970563,0 -9,-4.02944 -9,-9 0,-4.97056 4.029437,-8.999999 9,-8.999999 z"
         style="color:#93cee9;fill:#444444;fill-opacity:1" />
      <path
         style="color:#93cee9;opacity:0.3;fill:#00dfff;fill-opacity:1"
         d="m 50,63 c -6.075132,0 -11,4.92487 -11,11 0,6.07513 4.924868,11 11,11 6.075132,0 11,-4.92487 11,-11 0,-6.07513 -4.924868,-11 -11,-11 z m 0,1 c 5.522847,0 10,4.47715 10,10 0,5.52285 -4.477153,10 -10,10 -5.522847,0 -10,-4.47715 -10,-10 0,-5.52285 4.477153,-10 10,-10 z"
         id="path3904"
         class="ColorScheme-ButtonHover"
         inkscape:connector-curvature="0" />
    </g>
    <g
       id="horizontal-slider-shadow">
      <rect
         y="98"
         x="96"
         height="24"
         width="24"
         id="rect3114"
         style="opacity:0.00100002;fill:#000000;fill-opacity:0.00392157;stroke:none" />
      <path
         inkscape:connector-curvature="0"
         id="path3118"
         d="m 108,99 c -6.07513,0 -11,4.92487 -11,11 0,6.07513 4.92487,11 11,11 6.07513,0 11,-4.92487 11,-11 0,-6.07513 -4.92487,-11 -11,-11 z m 0,1 c 5.52285,0 10,4.47715 10,10 0,5.52285 -4.47715,10 -10,10 -5.52285,0 -10,-4.47715 -10,-10 0,-5.52285 4.47715,-10 10,-10 z"
         style="opacity:0.05;color:#3daee9;fill:#000000;fill-opacity:1" />
      <path
         id="path3037"
         d="M 115.71875,103.625 C 117.14531,105.35359 118,107.58375 118,110 c 0,2.76963 -1.14961,5.2516 -2.96875,7.0625 C 113.2229,118.86267 110.75322,120 108,120 c -2.76143,0 -5.25285,-1.12786 -7.0625,-2.9375 1.83415,2.22247 4.61215,3.625 7.71875,3.625 5.52285,0 10,-4.47715 10,-10 0,-2.76143 -1.12786,-5.25286 -2.9375,-7.0625 z"
         style="opacity:0.15;color:#3daee9;fill:#000000;fill-opacity:1"
         inkscape:connector-curvature="0" />
    </g>
    <g
       id="vertical-slider-shadow"
       transform="translate(-1,-36)">
      <rect
         style="opacity:0.00100002;fill:#000000;fill-opacity:0.00392157;stroke:none"
         id="rect3824"
         width="24"
         height="24"
         x="96"
         y="98" />
      <path
         style="color:#3daee9;opacity:0.05;fill:#000000;fill-opacity:1"
         d="m 108,99 c -6.07513,0 -11,4.92487 -11,11 0,6.07513 4.92487,11 11,11 6.07513,0 11,-4.92487 11,-11 0,-6.07513 -4.92487,-11 -11,-11 z m 0,1 c 5.52285,0 10,4.47715 10,10 0,5.52285 -4.47715,10 -10,10 -5.52285,0 -10,-4.47715 -10,-10 0,-5.52285 4.47715,-10 10,-10 z"
         id="path3826"
         inkscape:connector-curvature="0" />
      <path
         inkscape:connector-curvature="0"
         style="color:#3daee9;opacity:0.15;fill:#000000;fill-opacity:1"
         d="M 115.71875,103.625 C 117.14531,105.35359 118,107.58375 118,110 c 0,2.76963 -1.14961,5.2516 -2.96875,7.0625 C 113.2229,118.86267 110.75322,120 108,120 c -2.76143,0 -5.25285,-1.12786 -7.0625,-2.9375 1.83415,2.22247 4.61215,3.625 7.71875,3.625 5.52285,0 10,-4.47715 10,-10 0,-2.76143 -1.12786,-5.25286 -2.9375,-7.0625 z"
         id="path3828" />
    </g>
    <circle
       style="fill:#444444;fill-opacity:1;stroke:none;stroke-opacity:1"
       id="hint-handle-size"
       cy="16"
       cx="52"
       r="10" />
    <path
       class="ColorScheme-Text"
       inkscape:connector-curvature="0"
       style="color:#31363b;opacity:0.3;fill:currentColor"
       d="m 6,7 v 3 H 9 V 7 Z"
       id="groove-topleft"
       inkscape:label="" />
    <path
       class="ColorScheme-Text"
       inkscape:connector-curvature="0"
       style="color:#31363b;opacity:0.3;fill:currentColor"
       d="m 14,7 v 3 h 3 V 7 Z"
       id="groove-topright"
       inkscape:label="" />
    <path
       class="ColorScheme-Text"
       id="groove-bottomright"
       d="m 14,18 v -3 h 3 v 3 z"
       style="color:#31363b;opacity:0.3;fill:currentColor"
       inkscape:connector-curvature="0"
       inkscape:label="" />
    <path
       class="ColorScheme-Text"
       id="groove-bottomleft"
       d="m 6,18 v -3 h 3 v 3 z"
       style="color:#31363b;opacity:0.3;fill:currentColor"
       inkscape:connector-curvature="0"
       inkscape:label="" />
    <path
       inkscape:connector-curvature="0"
       style="color:#93cee9;fill:#00dfff;fill-opacity:1"
       d="m 24,18 v -3 h 3 v 3 z"
       id="groove-highlight-bottomleft"
       class="ColorScheme-ButtonHover"
       inkscape:label="" />
    <path
       inkscape:connector-curvature="0"
       style="color:#93cee9;fill:#00dfff;fill-opacity:1"
       d="m 32,18 v -3 h 3 v 3 z"
       id="groove-highlight-bottomright"
       class="ColorScheme-ButtonHover"
       inkscape:label="" />
    <path
       inkscape:connector-curvature="0"
       style="color:#93cee9;fill:#00dfff;fill-opacity:1"
       d="M 24,10 V 7 h 3 v 3 z"
       id="groove-highlight-topleft"
       class="ColorScheme-ButtonHover"
       inkscape:label="" />
    <path
       inkscape:connector-curvature="0"
       style="color:#93cee9;fill:#00dfff;fill-opacity:1"
       d="M 32,10 V 7 h 3 v 3 z"
       id="groove-highlight-topright"
       class="ColorScheme-ButtonHover"
       inkscape:label="" />
    <path
       style="fill:#444444;fill-opacity:1;stroke:none;stroke-opacity:1"
       id="hint-handle-size-9"
       cy="16"
       cx="52"
       r="10"
       d=""
       inkscape:connector-curvature="0" />
    <g
       id="horizontal-slider-handle"
       inkscape:label=""
       transform="translate(0,36)">
      <rect
         style="opacity:0.00100002;fill:#00dfff;fill-opacity:1;stroke:none"
         id="rect3900-7"
         width="24"
         height="24"
         x="38"
         y="62" />
      <path
         inkscape:connector-curvature="0"
         id="path997-0"
         d="m 50,64.000001 c -5.522847,0 -10,4.477149 -10,9.999999 0,5.52285 4.477153,10 10,10 5.522847,0 10,-4.47715 10,-10 0,-5.52285 -4.477153,-9.999999 -10,-9.999999 z"
         style="color:#93cee9;fill:#00dfff;fill-opacity:1" />
      <path
         inkscape:connector-curvature="0"
         id="path3902-9"
         d="m 50,65.000001 c 4.970563,0 9,4.029439 9,8.999999 0,4.97056 -4.029437,9 -9,9 -4.970563,0 -9,-4.02944 -9,-9 0,-4.97056 4.029437,-8.999999 9,-8.999999 z"
         style="color:#93cee9;fill:#444444;fill-opacity:1" />
      <path
         style="color:#93cee9;opacity:0.3;fill:#00dfff;fill-opacity:1"
         d="m 50,63 c -6.075132,0 -11,4.92487 -11,11 0,6.07513 4.924868,11 11,11 6.075132,0 11,-4.92487 11,-11 0,-6.07513 -4.924868,-11 -11,-11 z m 0,1 c 5.522847,0 10,4.47715 10,10 0,5.52285 -4.477153,10 -10,10 -5.522847,0 -10,-4.47715 -10,-10 0,-5.52285 4.477153,-10 10,-10 z"
         id="path3904-3"
         class="ColorScheme-ButtonHover"
         inkscape:connector-curvature="0" />
    </g>
    <g
       id="horizontal-slider-hover"
       inkscape:label=""
       transform="translate(0,20)">
      <rect
         style="opacity:0.00100002;fill:#00dfff;fill-opacity:1;stroke:none"
         id="rect3900-7-0"
         width="24"
         height="24"
         x="6"
         y="78" />
      <path
         inkscape:connector-curvature="0"
         id="path997-0-6"
         d="m 18,80 c -5.522847,0 -10,4.477149 -10,9.999999 0,5.52285 4.477153,10 10,10 5.522847,0 10,-4.47715 10,-10 C 28,84.477149 23.522847,80 18,80 Z"
         style="color:#93cee9;fill:#00dfff;fill-opacity:1" />
      <path
         style="color:#93cee9;opacity:0.3;fill:#00dfff;fill-opacity:1"
         d="m 18,78.999999 c -6.075132,0 -11,4.92487 -11,11 C 7,96.075129 11.924868,101 18,101 c 6.075132,0 11,-4.924871 11,-11.000001 0,-6.07513 -4.924868,-11 -11,-11 z m 0,1 c 5.522847,0 10,4.47715 10,10 0,5.52285 -4.477153,10 -10,10 -5.522847,0 -10,-4.47715 -10,-10 0,-5.52285 4.477153,-10 10,-10 z"
         id="path3904-3-6"
         class="ColorScheme-ButtonHover"
         inkscape:connector-curvature="0" />
    </g>
    <g
       id="vertical-slider-hover"
       inkscape:label=""
       transform="translate(0,-16)">
      <rect
         style="opacity:0.00100002;fill:#00dfff;fill-opacity:1;stroke:none"
         id="rect3900-7-0-8"
         width="24"
         height="24"
         x="6"
         y="78" />
      <path
         inkscape:connector-curvature="0"
         id="path997-0-6-7"
         d="m 18,80 c -5.522847,0 -10,4.477149 -10,9.999999 0,5.52285 4.477153,10 10,10 5.522847,0 10,-4.47715 10,-10 C 28,84.477149 23.522847,80 18,80 Z"
         style="color:#93cee9;fill:#00dfff;fill-opacity:1" />
      <path
         style="color:#93cee9;opacity:0.3;fill:#00dfff;fill-opacity:1"
         d="m 18,78.999999 c -6.075132,0 -11,4.92487 -11,11 C 7,96.075129 11.924868,101 18,101 c 6.075132,0 11,-4.924871 11,-11.000001 0,-6.07513 -4.924868,-11 -11,-11 z m 0,1 c 5.522847,0 10,4.47715 10,10 0,5.52285 -4.477153,10 -10,10 -5.522847,0 -10,-4.47715 -10,-10 0,-5.52285 4.477153,-10 10,-10 z"
         id="path3904-3-6-9"
         class="ColorScheme-ButtonHover"
         inkscape:connector-curvature="0" />
    </g>
    <g
       id="vertical-slider-focus"
       inkscape:label=""
       transform="translate(-2)">
      <rect
         style="opacity:0.00100002;fill:#00dfff;fill-opacity:1;stroke:none"
         id="rect3900-0"
         width="24"
         height="24"
         x="68"
         y="62" />
      <path
         inkscape:connector-curvature="0"
         id="path997-2"
         d="m 80,64.000001 c -5.522847,0 -10,4.477149 -10,9.999999 0,5.52285 4.477153,10 10,10 5.522847,0 10,-4.47715 10,-10 0,-5.52285 -4.477153,-9.999999 -10,-9.999999 z"
         style="color:#93cee9;fill:#00dfff;fill-opacity:1" />
      <path
         inkscape:connector-curvature="0"
         id="path3902-3"
         d="m 80,65.000001 c 4.970563,0 9,4.029439 9,8.999999 0,4.97056 -4.029437,9 -9,9 -4.970563,0 -9,-4.02944 -9,-9 0,-4.97056 4.029437,-8.999999 9,-8.999999 z"
         style="color:#93cee9;opacity:0.6;fill:#444444;fill-opacity:1" />
      <path
         style="color:#93cee9;opacity:0.3;fill:#00dfff;fill-opacity:1"
         d="m 80,63 c -6.075132,0 -11,4.92487 -11,11 0,6.07513 4.924868,11 11,11 6.075132,0 11,-4.92487 11,-11 0,-6.07513 -4.924868,-11 -11,-11 z m 0,1 c 5.522847,0 10,4.47715 10,10 0,5.52285 -4.477153,10 -10,10 -5.522847,0 -10,-4.47715 -10,-10 0,-5.52285 4.477153,-10 10,-10 z"
         id="path3904-7"
         class="ColorScheme-ButtonHover"
         inkscape:connector-curvature="0" />
    </g>
    <g
       id="horizontal-slider-focus"
       inkscape:label=""
       transform="translate(-2,36)">
      <rect
         style="opacity:0.00100002;fill:#00dfff;fill-opacity:1;stroke:none"
         id="rect3900-0-9"
         width="24"
         height="24"
         x="68"
         y="62" />
      <path
         inkscape:connector-curvature="0"
         id="path997-2-2"
         d="m 80,64.000001 c -5.522847,0 -10,4.477149 -10,9.999999 0,5.52285 4.477153,10 10,10 5.522847,0 10,-4.47715 10,-10 0,-5.52285 -4.477153,-9.999999 -10,-9.999999 z"
         style="color:#93cee9;fill:#00dfff;fill-opacity:1" />
      <path
         inkscape:connector-curvature="0"
         id="path3902-3-2"
         d="m 80,65.000001 c 4.970563,0 9,4.029439 9,8.999999 0,4.97056 -4.029437,9 -9,9 -4.970563,0 -9,-4.02944 -9,-9 0,-4.97056 4.029437,-8.999999 9,-8.999999 z"
         style="color:#93cee9;opacity:0.6;fill:#444444;fill-opacity:1" />
      <path
         style="color:#93cee9;opacity:0.3;fill:#00dfff;fill-opacity:1"
         d="m 80,63 c -6.075132,0 -11,4.92487 -11,11 0,6.07513 4.924868,11 11,11 6.075132,0 11,-4.92487 11,-11 0,-6.07513 -4.924868,-11 -11,-11 z m 0,1 c 5.522847,0 10,4.47715 10,10 0,5.52285 -4.477153,10 -10,10 -5.522847,0 -10,-4.47715 -10,-10 0,-5.52285 4.477153,-10 10,-10 z"
         id="path3904-7-8"
         class="ColorScheme-ButtonHover"
         inkscape:connector-curvature="0" />
    </g>
  </g>
</svg>
